<svg width="1670" height="933" viewBox="0 0 1670 933" fill="none" xmlns="http://www.w3.org/2000/svg">
<path d="M1 1L1668.86 1" stroke="#343434"/>
<path d="M845.96 2.10309L1668.86 932" stroke="#343434"/>
<path d="M823.898 2.10309L1.00004 932" stroke="#343434" stroke-dasharray="10 10"/>
<circle cx="301.038" cy="237.059" r="235.559" stroke="#343434"/>
<path d="M1668.63 452.207C1668.73 455.493 1668.8 458.788 1668.83 462.091L1668.33 462.096C1668.35 463.746 1668.36 465.398 1668.36 467.052C1668.36 468.705 1668.35 470.357 1668.33 472.007L1668.83 472.013C1668.8 475.315 1668.73 478.61 1668.63 481.896L1668.13 481.88C1668.02 485.166 1667.88 488.442 1667.71 491.71L1668.21 491.736C1668.04 495.04 1667.83 498.334 1667.59 501.619L1667.09 501.582C1666.85 504.864 1666.58 508.136 1666.27 511.398L1666.76 511.445C1666.45 514.732 1666.11 518.008 1665.73 521.275L1665.23 521.217C1664.85 524.49 1664.43 527.753 1663.99 531.004L1664.48 531.073C1664.03 534.336 1663.55 537.589 1663.03 540.831L1662.54 540.752C1662.02 544.009 1661.46 547.255 1660.87 550.489L1661.37 550.579C1660.78 553.816 1660.16 557.042 1659.5 560.256L1659.01 560.157C1658.35 563.39 1657.66 566.611 1656.94 569.819L1657.42 569.93C1656.7 573.143 1655.94 576.343 1655.14 579.531L1654.66 579.41C1653.86 582.607 1653.04 585.79 1652.17 588.961L1652.66 589.092C1651.79 592.273 1650.9 595.441 1649.97 598.595L1649.49 598.454C1648.56 601.61 1647.59 604.752 1646.6 607.879L1647.07 608.031C1646.07 611.174 1645.04 614.303 1643.98 617.417L1643.5 617.256C1642.44 620.366 1641.34 623.462 1640.22 626.543L1640.69 626.714C1639.55 629.813 1638.38 632.896 1637.19 635.963L1636.72 635.781C1635.52 638.846 1634.3 641.894 1633.04 644.926L1633.5 645.118C1632.23 648.162 1630.94 651.19 1629.61 654.201L1629.15 653.999C1627.83 657.01 1626.47 660.005 1625.08 662.983L1625.53 663.194C1624.14 666.179 1622.72 669.147 1621.26 672.097L1620.81 671.876C1619.36 674.829 1617.87 677.764 1616.36 680.682L1616.8 680.912C1615.28 683.833 1613.74 686.737 1612.16 689.621L1611.72 689.381C1610.14 692.27 1608.53 695.14 1606.89 697.991L1607.32 698.24C1605.68 701.095 1604.01 703.93 1602.31 706.746L1601.89 706.487C1600.18 709.305 1598.45 712.104 1596.7 714.882L1597.12 715.15C1595.36 717.932 1593.57 720.695 1591.75 723.437L1591.33 723.161C1589.52 725.903 1587.67 728.624 1585.79 731.325L1586.21 731.61C1584.33 734.316 1582.42 737.001 1580.49 739.664L1580.08 739.37C1578.15 742.032 1576.19 744.673 1574.21 747.291L1574.6 747.594C1572.61 750.217 1570.6 752.82 1568.55 755.399L1568.16 755.089C1566.12 757.666 1564.05 760.221 1561.95 762.754L1562.34 763.073C1560.24 765.61 1558.11 768.124 1555.96 770.616L1555.58 770.289C1553.43 772.778 1551.26 775.244 1549.05 777.686L1549.43 778.021C1547.22 780.466 1544.99 782.889 1542.74 785.287L1542.37 784.944C1540.12 787.34 1537.84 789.712 1535.54 792.06L1535.9 792.41C1533.59 794.76 1531.26 797.086 1528.91 799.387L1528.56 799.03C1526.2 801.328 1523.83 803.602 1521.43 805.851L1521.77 806.215C1519.37 808.466 1516.94 810.692 1514.49 812.892L1514.16 812.52C1511.71 814.717 1509.24 816.888 1506.75 819.034L1507.08 819.413C1504.58 821.56 1502.06 823.682 1499.52 825.777L1499.2 825.391C1496.67 827.483 1494.11 829.547 1491.53 831.585L1491.84 831.978C1489.25 834.018 1486.65 836.031 1484.02 838.018L1483.72 837.619C1481.1 839.601 1478.45 841.556 1475.79 843.483L1476.08 843.888C1473.42 845.817 1470.73 847.719 1468.02 849.592L1467.73 849.181C1465.03 851.05 1462.31 852.892 1459.56 854.706L1459.84 855.123C1457.09 856.936 1454.33 858.722 1451.54 860.479L1451.27 860.056C1448.49 861.81 1445.69 863.535 1442.87 865.231L1443.13 865.66C1440.31 867.355 1437.47 869.021 1434.62 870.657L1434.37 870.223C1431.51 871.858 1428.64 873.463 1425.75 875.039L1425.99 875.478C1423.1 877.051 1420.2 878.595 1417.27 880.108L1417.04 879.664C1414.12 881.176 1411.19 882.657 1408.23 884.108L1408.45 884.557C1405.5 886.006 1402.53 887.425 1399.54 888.814L1399.33 888.36C1396.35 889.745 1393.36 891.1 1390.34 892.423L1390.54 892.881C1387.53 894.204 1384.5 895.496 1381.46 896.757L1381.26 896.295C1378.23 897.551 1375.18 898.775 1372.11 899.968L1372.3 900.434C1369.23 901.629 1366.14 902.791 1363.04 903.922L1362.87 903.452C1359.79 904.576 1356.69 905.669 1353.58 906.729L1353.74 907.202C1350.63 908.264 1347.5 909.294 1344.35 910.291L1344.2 909.814C1341.07 910.806 1337.93 911.766 1334.77 912.693L1334.91 913.172C1331.76 914.099 1328.59 914.993 1325.41 915.855L1325.28 915.372C1322.11 916.23 1318.92 917.056 1315.72 917.848L1315.85 918.334C1312.66 919.124 1309.46 919.881 1306.24 920.605L1306.13 920.118C1302.92 920.841 1299.7 921.531 1296.47 922.187L1296.57 922.677C1293.35 923.33 1290.13 923.949 1286.89 924.535L1286.8 924.043C1283.56 924.629 1280.32 925.18 1277.06 925.699L1277.14 926.192C1273.9 926.708 1270.64 927.19 1267.38 927.639L1267.31 927.143C1264.06 927.59 1260.8 928.003 1257.52 928.383L1257.58 928.879C1254.32 929.258 1251.04 929.602 1247.75 929.913L1247.7 929.415C1244.44 929.724 1241.17 929.998 1237.89 930.239L1237.93 930.737C1234.64 930.978 1231.35 931.185 1228.04 931.357L1228.02 930.858C1224.75 931.029 1221.47 931.166 1218.19 931.268L1218.2 931.768C1214.92 931.871 1211.62 931.94 1208.32 931.974L1208.31 931.474C1206.66 931.491 1205.01 931.5 1203.36 931.5C1201.7 931.5 1200.05 931.491 1198.4 931.474L1198.4 931.974C1195.09 931.94 1191.8 931.871 1188.51 931.768L1188.53 931.268C1185.24 931.166 1181.97 931.029 1178.7 930.858L1178.67 931.357C1175.37 931.185 1172.08 930.978 1168.79 930.737L1168.83 930.239C1165.55 929.998 1162.27 929.724 1159.01 929.415L1158.96 929.913C1155.68 929.602 1152.4 929.258 1149.13 928.879L1149.19 928.383C1145.92 928.003 1142.66 927.59 1139.4 927.143L1139.34 927.639C1136.07 927.19 1132.82 926.708 1129.58 926.192L1129.66 925.699C1126.4 925.18 1123.15 924.628 1119.92 924.043L1119.83 924.535C1116.59 923.949 1113.36 923.33 1110.15 922.677L1110.25 922.187C1107.01 921.531 1103.79 920.841 1100.58 920.118L1100.47 920.605C1097.26 919.881 1094.06 919.124 1090.87 918.334L1090.99 917.848C1087.79 917.056 1084.61 916.23 1081.44 915.372L1081.31 915.855C1078.13 914.993 1074.96 914.099 1071.8 913.172L1071.94 912.693C1068.79 911.766 1065.64 910.806 1062.51 909.814L1062.36 910.291C1059.22 909.294 1056.09 908.264 1052.97 907.202L1053.13 906.729C1050.02 905.669 1046.93 904.576 1043.84 903.452L1043.67 903.922C1040.57 902.791 1037.49 901.629 1034.42 900.434L1034.6 899.968C1031.54 898.775 1028.49 897.551 1025.45 896.295L1025.26 896.757C1022.21 895.496 1019.19 894.204 1016.17 892.881L1016.37 892.423C1013.36 891.1 1010.36 889.745 1007.38 888.36L1007.17 888.814C1004.19 887.425 1001.22 886.006 998.265 884.557L998.486 884.108C995.53 882.657 992.593 881.176 989.673 879.664L989.443 880.108C986.52 878.595 983.615 877.051 980.728 875.478L980.967 875.039C978.076 873.464 975.203 871.858 972.35 870.223L972.101 870.657C969.244 869.021 966.406 867.355 963.588 865.66L963.846 865.231C961.025 863.535 958.224 861.81 955.443 860.056L955.176 860.479C952.391 858.722 949.625 856.937 946.88 855.123L947.155 854.706C944.41 852.892 941.686 851.05 938.982 849.181L938.698 849.592C935.989 847.719 933.301 845.817 930.634 843.889L930.927 843.484C928.262 841.556 925.618 839.601 922.996 837.619L922.695 838.018C920.067 836.032 917.462 834.018 914.878 831.978L915.188 831.586C912.607 829.547 910.049 827.483 907.513 825.392L907.195 825.777C904.654 823.682 902.135 821.56 899.64 819.413L899.966 819.034C897.474 816.888 895.004 814.717 892.558 812.52L892.224 812.892C889.774 810.692 887.348 808.466 884.946 806.216L885.288 805.851C882.888 803.602 880.512 801.328 878.16 799.03L877.81 799.387C875.456 797.086 873.126 794.76 870.821 792.41L871.178 792.06C868.875 789.712 866.597 787.34 864.344 784.944L863.98 785.287C861.725 782.889 859.495 780.466 857.291 778.021L857.662 777.686C855.461 775.244 853.285 772.778 851.135 770.289L850.757 770.616C848.605 768.124 846.479 765.61 844.379 763.073L844.765 762.754C842.669 760.221 840.6 757.666 838.557 755.089L838.165 755.4C836.12 752.82 834.103 750.218 832.112 747.594L832.51 747.292C830.524 744.673 828.564 742.032 826.632 739.371L826.228 739.664C824.294 737.001 822.388 734.316 820.511 731.61L820.922 731.325C819.047 728.624 817.201 725.903 815.383 723.161L814.966 723.437C813.148 720.695 811.358 717.932 809.597 715.15L810.02 714.882C808.261 712.104 806.531 709.305 804.831 706.487L804.403 706.746C802.703 703.93 801.033 701.095 799.392 698.241L799.825 697.991C798.186 695.14 796.577 692.27 794.997 689.381L794.558 689.621C792.981 686.737 791.433 683.834 789.915 680.912L790.359 680.682C788.843 677.765 787.357 674.829 785.902 671.876L785.454 672.097C784 669.147 782.577 666.179 781.184 663.195L781.638 662.983C780.248 660.005 778.89 657.011 777.563 653.999L777.105 654.201C775.778 651.19 774.482 648.162 773.218 645.118L773.679 644.926C772.42 641.894 771.191 638.846 769.995 635.781L769.529 635.963C768.331 632.896 767.165 629.813 766.03 626.714L766.5 626.543C765.372 623.462 764.276 620.366 763.213 617.256L762.739 617.417C761.674 614.303 760.642 611.174 759.641 608.031L760.118 607.879C759.123 604.752 758.16 601.61 757.23 598.454L756.75 598.595C755.82 595.441 754.923 592.273 754.059 589.091L754.541 588.96C753.68 585.79 752.852 582.607 752.057 579.41L751.572 579.531C750.779 576.343 750.019 573.143 749.292 569.929L749.78 569.819C749.054 566.611 748.362 563.39 747.703 560.156L747.213 560.256C746.559 557.042 745.937 553.816 745.349 550.578L745.841 550.489C745.254 547.255 744.7 544.009 744.18 540.752L743.686 540.83C743.169 537.589 742.685 534.336 742.235 531.072L742.73 531.004C742.282 527.752 741.867 524.49 741.486 521.217L740.99 521.275C740.61 518.008 740.264 514.731 739.952 511.445L740.45 511.397C740.141 508.135 739.865 504.863 739.624 501.582L739.125 501.619C738.883 498.334 738.676 495.039 738.503 491.736L739.002 491.71C738.831 488.442 738.694 485.165 738.59 481.88L738.091 481.896C737.987 478.61 737.918 475.315 737.884 472.012L738.384 472.007C738.367 470.357 738.358 468.705 738.358 467.052C738.358 465.398 738.367 463.746 738.384 462.096L737.884 462.091C737.918 458.788 737.987 455.493 738.091 452.207L738.59 452.223C738.694 448.937 738.831 445.661 739.002 442.393L738.503 442.367C738.676 439.063 738.883 435.769 739.125 432.484L739.624 432.521C739.865 429.239 740.141 425.967 740.45 422.705L739.952 422.658C740.264 419.371 740.61 416.095 740.99 412.828L741.486 412.886C741.867 409.613 742.282 406.351 742.73 403.099L742.235 403.031C742.685 399.767 743.169 396.514 743.686 393.272L744.18 393.351C744.7 390.094 745.254 386.848 745.841 383.614L745.349 383.525C745.937 380.287 746.559 377.061 747.213 373.847L747.703 373.947C748.362 370.713 749.054 367.492 749.78 364.284L749.292 364.174C750.019 360.96 750.779 357.76 751.572 354.572L752.057 354.693C752.852 351.496 753.68 348.313 754.541 345.143L754.059 345.012C754.923 341.83 755.82 338.662 756.75 335.508L757.23 335.649C758.16 332.493 759.123 329.351 760.118 326.224L759.641 326.072C760.642 322.929 761.674 319.8 762.739 316.686L763.213 316.848C764.276 313.737 765.372 310.641 766.5 307.56L766.03 307.389C767.165 304.29 768.331 301.207 769.529 298.14L769.995 298.322C771.191 295.258 772.42 292.209 773.679 289.177L773.218 288.985C774.482 285.941 775.778 282.913 777.105 279.903L777.563 280.104C778.89 277.093 780.248 274.098 781.637 271.12L781.184 270.909C782.577 267.924 784 264.956 785.454 262.006L785.902 262.227C787.357 259.274 788.843 256.339 790.359 253.422L789.915 253.191C791.433 250.27 792.98 247.367 794.558 244.482L794.997 244.722C796.577 241.833 798.186 238.963 799.825 236.112L799.392 235.863C801.033 233.008 802.703 230.173 804.402 227.358L804.83 227.616C806.531 224.798 808.261 221.999 810.02 219.221L809.597 218.954C811.358 216.171 813.148 213.408 814.966 210.666L815.383 210.942C817.201 208.2 819.047 205.479 820.921 202.778L820.511 202.493C822.388 199.787 824.294 197.102 826.227 194.439L826.632 194.733C828.564 192.071 830.524 189.43 832.51 186.812L832.112 186.51C834.103 183.886 836.12 181.284 838.165 178.704L838.557 179.014C840.599 176.437 842.669 173.882 844.764 171.349L844.379 171.031C846.479 168.493 848.605 165.979 850.757 163.487L851.135 163.814C853.285 161.325 855.461 158.86 857.662 156.417L857.291 156.082C859.495 153.637 861.725 151.215 863.98 148.816L864.344 149.159C866.597 146.763 868.875 144.391 871.178 142.043L870.821 141.693C873.126 139.343 875.456 137.017 877.81 134.716L878.16 135.074C880.511 132.775 882.887 130.501 885.287 128.253L884.946 127.888C887.348 125.637 889.774 123.411 892.224 121.211L892.558 121.583C895.004 119.386 897.473 117.215 899.966 115.07L899.64 114.691C902.135 112.543 904.654 110.421 907.195 108.326L907.513 108.712C910.049 106.621 912.607 104.556 915.188 102.518L914.878 102.125C917.462 100.085 920.067 98.0717 922.695 96.0854L922.996 96.4843C925.618 94.5022 928.262 92.5472 930.927 90.6197L930.634 90.2146C933.301 88.2858 935.989 86.3845 938.698 84.5112L938.982 84.9225C941.686 83.0528 944.41 81.211 947.155 79.3975L946.88 78.9803C949.625 77.1666 952.39 75.3813 955.176 73.6246L955.443 74.0475C958.224 72.2935 961.025 70.5682 963.846 68.8719L963.588 68.4434C966.406 66.7485 969.244 65.0826 972.101 63.446L972.349 63.8799C975.203 62.2451 978.076 60.6397 980.967 59.0641L980.728 58.625C983.615 57.0519 986.52 55.5084 989.443 53.9949L989.673 54.4389C992.593 52.9275 995.53 51.446 998.486 49.995L998.265 49.5462C1001.22 48.0968 1004.19 46.6777 1007.17 45.2894L1007.38 45.7428C1010.36 44.3578 1013.36 43.0033 1016.37 41.6799L1016.17 41.2221C1019.19 39.8991 1022.21 38.6071 1025.26 37.3464L1025.45 37.8084C1028.49 36.5525 1031.54 35.3278 1034.6 34.1347L1034.42 33.6688C1037.49 32.4746 1040.57 31.3119 1043.67 30.1813L1043.84 30.651C1046.93 29.5269 1050.02 28.4344 1053.13 27.374L1052.97 26.9007C1056.09 25.8391 1059.22 24.8096 1062.36 23.8125L1062.51 24.2891C1065.64 23.2973 1068.79 22.3375 1071.94 21.4104L1071.8 20.9307C1074.96 20.0039 1078.13 19.1097 1081.31 18.2483L1081.44 18.7309C1084.61 17.8728 1087.79 17.0472 1090.99 16.2548L1090.87 15.7695C1094.06 14.9792 1097.26 14.2218 1100.47 13.4976L1100.58 13.9854C1103.79 13.2623 1107.01 12.5724 1110.25 11.9159L1110.15 11.4259C1113.36 10.7734 1116.59 10.1539 1119.83 9.56793L1119.92 10.0599C1123.15 9.47457 1126.4 8.92262 1129.66 8.40446L1129.58 7.91067C1132.82 7.39504 1136.07 6.91284 1139.34 6.46443L1139.4 6.95977C1142.66 6.51297 1145.92 6.09975 1149.19 5.72048L1149.13 5.2238C1152.4 4.8453 1155.68 4.50058 1158.96 4.18999L1159.01 4.68777C1162.27 4.3795 1165.55 4.10489 1168.83 3.8643L1168.79 3.36564C1172.08 3.12479 1175.37 2.91799 1178.67 2.74559L1178.7 3.24491C1181.97 3.07439 1185.24 2.93756 1188.53 2.83477L1188.51 2.33501C1191.8 2.23219 1195.09 2.16339 1198.4 2.12894L1198.4 2.62892C1200.05 2.61171 1201.7 2.60309 1203.36 2.60309C1205.01 2.60309 1206.66 2.61171 1208.31 2.62892L1208.32 2.12895C1211.62 2.16339 1214.92 2.2322 1218.2 2.33502L1218.19 2.83478C1221.47 2.93757 1224.75 3.0744 1228.02 3.24493L1228.04 2.74561C1231.35 2.91801 1234.64 3.12481 1237.93 3.36566L1237.89 3.86432C1241.17 4.10492 1244.44 4.37953 1247.7 4.6878L1247.75 4.19001C1251.04 4.5006 1254.32 4.84533 1257.58 5.22383L1257.52 5.72051C1260.8 6.09978 1264.06 6.513 1267.31 6.9598L1267.38 6.46445C1270.64 6.91287 1273.9 7.39507 1277.14 7.9107L1277.06 8.40449C1280.32 8.92265 1283.56 9.4746 1286.8 10.06L1286.89 9.56796C1290.13 10.154 1293.35 10.7734 1296.57 11.426L1296.47 11.916C1299.7 12.5724 1302.92 13.2623 1306.13 13.9854L1306.24 13.4976C1309.46 14.2218 1312.66 14.9792 1315.85 15.7695L1315.72 16.2548C1318.92 17.0473 1322.11 17.8728 1325.28 18.7309L1325.41 18.2483C1328.59 19.1097 1331.76 20.0039 1334.91 20.9307L1334.77 21.4104C1337.93 22.3375 1341.07 23.2973 1344.2 24.2891L1344.35 23.8125C1347.5 24.8096 1350.63 25.8391 1353.74 26.9007L1353.58 27.374C1356.69 28.4344 1359.79 29.5269 1362.87 30.651L1363.04 30.1813C1366.14 31.3119 1369.23 32.4745 1372.3 33.6687L1372.11 34.1347C1375.18 35.3278 1378.23 36.5525 1381.26 37.8083L1381.46 37.3463C1384.5 38.607 1387.53 39.899 1390.54 41.222L1390.34 41.6798C1393.36 43.0032 1396.35 44.3577 1399.33 45.7427L1399.54 45.2893C1402.53 46.6777 1405.5 48.0967 1408.45 49.5461L1408.23 49.9949C1411.19 51.4459 1414.12 52.9274 1417.04 54.4388L1417.27 53.9948C1420.2 55.5082 1423.1 57.0517 1425.99 58.6249L1425.75 59.0639C1428.64 60.6396 1431.51 62.245 1434.37 63.8798L1434.61 63.4459C1437.47 65.0824 1440.31 66.7483 1443.13 68.4432L1442.87 68.8717C1445.69 70.568 1448.49 72.2934 1451.27 74.0474L1451.54 73.6245C1454.33 75.3811 1457.09 77.1665 1459.84 78.9801L1459.56 79.3973C1462.31 81.2108 1465.03 83.0526 1467.73 84.9223L1468.02 84.5111C1470.73 86.3844 1473.42 88.2856 1476.08 90.2144L1475.79 90.6196C1478.45 92.547 1481.1 94.502 1483.72 96.4842L1484.02 96.0853C1486.65 98.0715 1489.25 100.085 1491.84 102.125L1491.53 102.518C1494.11 104.556 1496.67 106.62 1499.2 108.712L1499.52 108.326C1502.06 110.421 1504.58 112.543 1507.08 114.69L1506.75 115.069C1509.24 117.215 1511.71 119.386 1514.16 121.583L1514.49 121.211C1516.94 123.411 1519.37 125.637 1521.77 127.887L1521.43 128.252C1523.83 130.501 1526.2 132.775 1528.56 135.073L1528.91 134.716C1531.26 137.017 1533.59 139.343 1535.89 141.693L1535.54 142.043C1537.84 144.391 1540.12 146.763 1542.37 149.159L1542.74 148.816C1544.99 151.214 1547.22 153.637 1549.43 156.082L1549.05 156.417C1551.26 158.859 1553.43 161.325 1555.58 163.814L1555.96 163.487C1558.11 165.979 1560.24 168.493 1562.34 171.03L1561.95 171.349C1564.05 173.882 1566.12 176.437 1568.16 179.014L1568.55 178.703C1570.6 181.283 1572.61 183.885 1574.6 186.509L1574.21 186.812C1576.19 189.43 1578.15 192.071 1580.08 194.732L1580.49 194.439C1582.42 197.102 1584.33 199.787 1586.21 202.493L1585.79 202.778C1587.67 205.479 1589.51 208.2 1591.33 210.942L1591.75 210.666C1593.57 213.408 1595.36 216.171 1597.12 218.953L1596.7 219.221C1598.45 221.999 1600.18 224.798 1601.89 227.616L1602.31 227.357C1604.01 230.173 1605.68 233.008 1607.32 235.862L1606.89 236.112C1608.53 238.963 1610.14 241.833 1611.72 244.722L1612.16 244.482C1613.74 247.366 1615.28 250.27 1616.8 253.191L1616.36 253.421C1617.87 256.339 1619.36 259.274 1620.81 262.227L1621.26 262.006C1622.72 264.956 1624.14 267.924 1625.53 270.909L1625.08 271.12C1626.47 274.098 1627.83 277.092 1629.15 280.104L1629.61 279.902C1630.94 282.913 1632.23 285.941 1633.5 288.985L1633.04 289.177C1634.3 292.209 1635.52 295.257 1636.72 298.322L1637.19 298.14C1638.38 301.207 1639.55 304.29 1640.69 307.389L1640.22 307.56C1641.34 310.641 1642.44 313.737 1643.5 316.848L1643.98 316.686C1645.04 319.8 1646.07 322.929 1647.07 326.072L1646.6 326.224C1647.59 329.351 1648.56 332.493 1649.49 335.649L1649.97 335.508C1650.9 338.662 1651.79 341.83 1652.66 345.012L1652.17 345.143C1653.04 348.313 1653.86 351.496 1654.66 354.693L1655.14 354.573C1655.94 357.76 1656.7 360.961 1657.42 364.174L1656.94 364.284C1657.66 367.492 1658.35 370.713 1659.01 373.947L1659.5 373.847C1660.16 377.061 1660.78 380.287 1661.37 383.525L1660.87 383.614C1661.46 386.848 1662.02 390.094 1662.54 393.351L1663.03 393.273C1663.55 396.514 1664.03 399.767 1664.48 403.031L1663.99 403.099C1664.43 406.351 1664.85 409.613 1665.23 412.886L1665.73 412.828C1666.11 416.095 1666.45 419.372 1666.76 422.658L1666.27 422.706C1666.58 425.968 1666.85 429.24 1667.09 432.521L1667.59 432.484C1667.83 435.769 1668.04 439.064 1668.21 442.367L1667.71 442.393C1667.88 445.661 1668.02 448.938 1668.13 452.223L1668.63 452.207Z" stroke="#343434" stroke-dasharray="10 10"/>
</svg>
