<svg width="94" height="82" viewBox="0 0 94 82" fill="none" xmlns="http://www.w3.org/2000/svg">
<path d="M32.5453 26.6788L25.0604 21.4616L26.3493 19.6138L26.5851 19.7753L33.6211 24.6791L35.3155 25.792C35.9842 26.2394 36.6351 26.5625 37.3006 26.7773L37.4766 26.8306C37.9806 26.9808 38.5104 27.0713 39.0515 27.0987H39.087C39.6524 27.1278 40.2403 27.0874 40.8347 26.9808C42.6325 26.6594 44.1104 25.792 45.2298 24.3997C45.3396 24.2672 45.451 24.1202 45.5625 23.962L45.5883 23.9264C45.6982 23.7681 45.7999 23.6098 45.8888 23.4564C46.8046 21.9251 47.1067 20.2388 46.7868 18.4443C46.6802 17.8451 46.5155 17.283 46.2974 16.7726L46.2764 16.7176C46.0745 16.2444 45.8112 15.7857 45.4979 15.3625L45.6966 15.1525L45.4737 15.3318C45.0327 14.7422 44.4544 14.2819 43.7211 13.7715L42.2933 12.77L36.5075 21.0723L34.65 19.7785L34.8228 19.5459L41.7328 9.63485L45.0085 11.9188C46.0406 12.6392 46.7949 13.3402 47.3635 14.1139L47.3683 14.1107L47.5105 14.3174C47.8319 14.7907 48.1081 15.293 48.331 15.8083C48.3423 15.8357 48.3504 15.8551 48.3568 15.8745C48.6411 16.5432 48.8543 17.2733 48.9916 18.0405C49.2016 19.2196 49.2113 20.3681 49.0191 21.4535L48.7316 21.4341L49.0126 21.4842L49.0062 21.5213C48.9561 21.7992 48.8899 22.0786 48.814 22.3483C48.5814 23.1673 48.2244 23.9684 47.756 24.726C47.6639 24.8794 47.5589 25.0409 47.4265 25.2315C47.2908 25.4254 47.1777 25.5772 47.0695 25.7112C46.3346 26.6545 45.4559 27.4315 44.4641 28.0178L44.4367 28.034C43.4772 28.5928 42.395 28.9821 41.2208 29.1921C40.6118 29.3003 40.0077 29.3552 39.4198 29.3552C39.2631 29.3552 39.1064 29.352 38.9514 29.3439H38.9384L38.8738 29.3407C38.3198 29.31 37.7528 29.2228 37.2134 29.0871H37.2053L37.1471 29.0709C35.947 28.7624 34.9181 28.3053 34.0152 27.677L32.5486 26.6852L32.5453 26.6788ZM60.7925 17.2232C58.9915 15.9682 57.3181 15.3237 55.4154 15.1622C55.5656 15.7033 55.6932 16.2638 55.7966 16.8323C55.984 17.9 56.0744 18.9741 56.0663 20.0305C56.1148 20.0466 56.1616 20.0628 56.2101 20.0789C56.966 20.3455 57.7042 20.7283 58.4068 21.2177L68.8961 28.5298L67.6088 30.376L57.1195 23.0639C56.7205 22.7861 56.3054 22.5535 55.8854 22.3726C55.8741 22.4485 55.8628 22.5244 55.8499 22.5987L55.8386 22.6504C55.4461 24.923 54.5206 27.1262 53.0879 29.1791C51.723 31.1368 50.0706 32.7117 48.1711 33.8649C48.6508 34.8357 49.3712 35.6611 50.3177 36.3217L51.66 37.2569L57.4942 28.8884L64.9986 34.1185L53.9568 49.9591L52.1074 48.6701L61.8602 34.6774L58.0531 32.0236L48.31 46.0034L43.2075 42.4467C40.7507 40.7345 39.213 38.8108 38.2423 36.2313C35.3575 36.0342 32.6164 35.0441 30.0918 33.2835L22.9654 28.3925L22.7296 28.2375L21.116 27.1133L22.4049 25.2654L23.3288 25.9099L31.3791 31.4356C33.4127 32.8538 35.6078 33.6953 37.9015 33.9392L37.9725 33.9263L38.0129 33.9505C38.5411 34.0038 39.0919 34.0248 39.6491 34.0135L39.7412 33.9974L39.7638 34.0119C40.51 33.9909 41.2757 33.9102 42.0445 33.7729C43.0976 33.5855 44.1007 33.3012 45.0295 32.9265L45.0488 32.8974L45.1361 32.8813C45.619 32.6842 46.102 32.4516 46.5672 32.1916L46.6205 32.1625C48.4134 31.1513 49.9672 29.7138 51.2384 27.8902C52.508 26.0698 53.3172 24.1186 53.6451 22.0915L53.6516 22.0592C53.7356 21.5359 53.7873 20.9996 53.8083 20.4537V20.4036C53.8486 19.386 53.7679 18.3151 53.574 17.2281C53.4464 16.5157 53.2768 15.8293 53.0669 15.1848H53.0556L52.9683 14.928C52.7874 14.3982 52.571 13.8765 52.3271 13.3806L52.1462 13.0123H52.1591C51.1625 11.1112 49.6862 9.48787 47.6623 8.07616L40.5747 3.13516L30.83 17.1166L28.9821 15.8277L40.019 0L48.9561 6.22833C51.5808 8.05839 53.4271 10.2309 54.5981 12.8702C57.3278 12.9009 59.6425 13.6778 62.0815 15.377L72.8405 22.8765L71.5532 24.7227L60.7941 17.2232H60.7925ZM47.7511 42.8699L50.3743 39.1064L48.7655 37.9692C47.6688 37.1519 46.8095 36.144 46.2134 34.9778L46.1924 34.994L46.1521 34.9019C46.1521 34.9019 46.1424 34.9051 46.1375 34.9068C45.0036 35.3881 43.7615 35.7531 42.4435 35.9938C41.8523 36.0988 41.2611 36.1747 40.6797 36.2199C41.4889 37.9725 42.6793 39.3357 44.4964 40.6037L47.7511 42.8715V42.8699Z" fill="white"/>
<path d="M19.7995 64.6969C19.7995 70.0595 15.6435 73.3061 9.15029 73.3061H0V56.0894H9.15029C15.6435 56.0894 19.7995 59.336 19.7995 64.6985V64.6969ZM15.7905 64.6969C15.7905 61.1547 12.9865 59.4329 8.8547 59.4329H3.93632V69.9593H8.8547C12.9865 69.9593 15.7905 68.2375 15.7905 64.6953V64.6969Z" fill="white"/>
<path d="M36.501 69.6654H26.0973L24.2527 73.3061H20.0466L29.1711 56.0894H33.4757L42.6001 73.3061H38.3456L36.501 69.6654ZM34.8535 66.4672L31.287 59.4571L27.7206 66.4672H34.8535Z" fill="white"/>
<path d="M62.5982 68.0903C62.5982 71.4839 59.3758 73.8453 53.2767 73.8453C48.9237 73.8453 45.3815 72.6161 42.7502 70.3774L45.0132 67.6962C47.1291 69.6393 49.8589 70.5486 53.3752 70.5486C56.8916 70.5486 58.6393 69.8848 58.6393 68.4585C58.6393 67.0323 56.869 66.6382 52.9084 66.2941C47.9901 65.8758 43.4141 64.7936 43.4141 61.1044C43.4141 57.4152 47.2503 55.5464 52.5644 55.5464C56.3279 55.5464 59.5745 56.4816 61.7631 58.1776L59.5987 60.9073C57.7057 59.4569 55.3684 58.8657 52.5644 58.8415C50.2271 58.8172 47.3746 59.2356 47.3746 60.8088C47.3746 62.2851 49.8346 62.4321 53.2525 62.7035C58.7378 63.146 62.5982 64.3026 62.5982 68.0903Z" fill="white"/>
<path d="M85.3989 56.0874V73.3042H81.4642V66.2941H69.7328V73.3042H65.7981V56.0874H69.7328V62.852H81.4642V56.0874H85.3989Z" fill="white"/>
<path d="M90.0232 73.3061V56.0894H93.9579V73.3061H90.0232Z" fill="white"/>
<path d="M49.4826 80.432C49.0853 81.0716 48.2211 81.5368 47.0291 81.5368C45.3153 81.5368 44.2913 80.6678 44.2913 79.2335C44.2913 77.7992 45.3153 76.9302 47.0178 76.9302C48.0854 76.9302 48.8188 77.3275 49.2533 77.7927L48.6443 78.2272C48.2599 77.7927 47.7495 77.5811 47.0242 77.5811C45.8015 77.5811 45.0488 78.14 45.0488 79.2335C45.0488 80.327 45.8128 80.8859 47.0614 80.8859C47.8254 80.8859 48.4456 80.6872 48.7622 80.1897V79.6922H46.9483V79.0526H49.4826V80.432Z" fill="white"/>
<path d="M59.6893 81.4057L58.3422 79.8276H56.5105V81.4057H55.7659V77.0591H58.7217C59.7345 77.0591 60.4791 77.5437 60.4791 78.4433C60.4791 79.1944 59.9574 79.6548 59.1999 79.7904L60.6099 81.4057H59.6909H59.6893ZM58.6717 79.1896C59.2919 79.1896 59.7151 78.9909 59.7151 78.4498C59.7151 77.9087 59.2935 77.7116 58.6717 77.7116H56.504V79.1896H58.6717Z" fill="white"/>
<path d="M66.4619 79.2335C66.4619 77.7992 67.4924 76.9302 69.1626 76.9302C70.8327 76.9302 71.8632 77.7992 71.8632 79.2335C71.8632 80.6678 70.8327 81.5368 69.1626 81.5368C67.4924 81.5368 66.4619 80.6678 66.4619 79.2335ZM71.1009 79.2335C71.1009 78.1771 70.3433 77.5876 69.1626 77.5876C67.9818 77.5876 67.2195 78.1771 67.2195 79.2335C67.2195 80.2899 67.977 80.8794 69.1626 80.8794C70.3482 80.8794 71.1009 80.2899 71.1009 79.2335Z" fill="white"/>
<path d="M82.7999 77.0591V79.3576C82.7999 80.6433 81.9745 81.5365 80.4336 81.5365C78.8927 81.5365 78.0737 80.6417 78.0737 79.3576V77.0591H78.8184V79.3075C78.8184 80.2831 79.395 80.8726 80.4336 80.8726C81.4722 80.8726 82.0537 80.2831 82.0537 79.3075V77.0591H82.7983H82.7999Z" fill="white"/>
<path d="M94 78.4806C94 79.3932 93.299 79.902 92.2426 79.902H90.0508V81.4042H89.3062V77.0576H92.2443C93.3006 77.0576 94.0016 77.5729 94.0016 78.479L94 78.4806ZM93.236 78.4871C93.236 77.9282 92.8209 77.7102 92.1813 77.7102H90.0508V79.2624H92.1813C92.8209 79.2624 93.236 79.0395 93.236 78.4855V78.4871Z" fill="white"/>
</svg>
